<?xml version="1.0" encoding="iso-8859-1"?>
<!-- Generator: Adobe Illustrator 24.1.0, SVG Export Plug-In . SVG Version: 6.00 Build 0)  -->
<svg version="1.1" id="Capa_1" xmlns="http://www.w3.org/2000/svg" xmlns:xlink="http://www.w3.org/1999/xlink" x="0px" y="0px"
	 viewBox="0 0 512 512" style="enable-background:new 0 0 512 512;" xml:space="preserve">
<g>
	<path d="M399.44,234.36h-4.236c1.07-2.722,1.636-5.647,1.636-8.66c0-23.778-14.906-44.128-35.859-52.232
		c2.239-3.614,3.536-7.869,3.536-12.424c0-23.778-14.906-44.127-35.858-52.23c2.237-3.613,3.533-7.867,3.533-12.42
		c0-29.42-22.815-53.596-51.679-55.806c2.033-3.852,3.19-8.235,3.19-12.885C283.703,12.428,271.275,0,256,0
		s-27.703,12.428-27.703,27.703c0,4.65,1.157,9.033,3.19,12.885c-28.864,2.21-51.679,26.385-51.679,55.806
		c0,4.553,1.296,8.807,3.533,12.42c-20.953,8.103-35.858,28.453-35.858,52.23c0,4.545,1.291,8.793,3.521,12.402
		c-7.204,2.775-13.821,7.039-19.451,12.663c-10.571,10.584-16.394,24.645-16.394,39.591c0,3.056,0.589,5.976,1.649,8.66h-4.249
		c-8.591,0-15.579,6.989-15.579,15.58V266.1c0,8.591,6.988,15.58,15.579,15.58h5.701l5.109,32.686
		c2.888,18.521,18.596,31.965,37.35,31.965h7.41l7.938,130.166C177.281,496.405,193.855,512,213.802,512h84.396
		c19.946,0,36.521-15.595,37.734-35.504l7.938-130.166h7.41c18.754,0,34.462-13.443,37.35-31.962l5.109-32.688h5.701
		c8.591,0,15.579-6.989,15.579-15.58V249.94C415.02,241.35,408.031,234.36,399.44,234.36z M256,15
		c7.005,0,12.703,5.698,12.703,12.703S263.005,40.406,256,40.406s-12.703-5.698-12.703-12.703S248.995,15,256,15z M194.809,96.395
		c0-22.601,18.388-40.988,40.988-40.988h40.406c22.601,0,40.988,18.388,40.988,40.988c0,4.776-3.886,8.662-8.663,8.662H203.472
		C198.694,105.057,194.809,101.171,194.809,96.395z M279.777,346.33l-90.917,93.502l-1.911-31.337l60.444-62.165H279.777z
		 M207.973,496.22l119.204-122.583l-2.229,36.545L240.539,497h-26.737C211.788,497,209.839,496.715,207.973,496.22z M298.198,497
		h-36.739l62.089-63.86l-2.588,42.444C320.229,487.593,310.23,497,298.198,497z M328.577,350.682L195.393,487.64
		c-2.5-3.413-4.079-7.552-4.353-12.056l-0.946-15.505L300.699,346.33h28.143L328.577,350.682z M373.81,312.055
		c-1.742,11.169-11.217,19.275-22.529,19.275H223.69c-4.143,0-7.5,3.357-7.5,7.5s3.357,7.5,7.5,7.5h2.781l-40.757,41.917
		l-2.556-41.917h5.532c4.143,0,7.5-3.357,7.5-7.5s-3.357-7.5-7.5-7.5H160.72c-11.312,0-20.787-8.106-22.529-19.278l-4.747-30.372
		h245.114L373.81,312.055z M400.02,266.1c0,0.325-0.254,0.58-0.579,0.58H112.56c-0.325,0-0.579-0.255-0.579-0.58V249.94
		c0-0.325,0.254-0.58,0.579-0.58H303.66c4.143,0,7.5-3.357,7.5-7.5s-3.357-7.5-7.5-7.5H138.82c-4.775,0-8.66-3.885-8.66-8.66
		c0-10.943,4.264-21.238,12.001-28.984c7.75-7.742,18.045-12.006,28.989-12.006h23.479c4.143,0,7.5-3.357,7.5-7.5
		s-3.357-7.5-7.5-7.5h-23.425c-0.02,0-0.039-0.003-0.058-0.003c-4.776,0-8.663-3.886-8.663-8.662
		c0-22.601,18.388-40.988,40.988-40.988h105.057c22.601,0,40.988,18.388,40.988,40.988c0,4.776-3.887,8.662-8.663,8.662
		c-0.02,0-0.039,0.003-0.058,0.003H229.63c-4.143,0-7.5,3.357-7.5,7.5s3.357,7.5,7.5,7.5h111.22c22.603,0,40.99,18.388,40.99,40.99
		c0,2.312-0.899,4.483-2.532,6.116c-1.641,1.641-3.817,2.544-6.128,2.544h-34.52c-4.143,0-7.5,3.357-7.5,7.5s3.357,7.5,7.5,7.5
		h60.78c0.325,0,0.579,0.255,0.579,0.58V266.1z"/>
</g>
<g>
</g>
<g>
</g>
<g>
</g>
<g>
</g>
<g>
</g>
<g>
</g>
<g>
</g>
<g>
</g>
<g>
</g>
<g>
</g>
<g>
</g>
<g>
</g>
<g>
</g>
<g>
</g>
<g>
</g>
</svg>
